<svg aria-hidden="true" style="width:0;height:0;position:absolute;overflow:hidden" xmlns="http://www.w3.org/2000/svg"><defs><symbol id="close" viewBox="0 0 32 32"><path d="m26.667 7.303-1.97-1.97-7.808 7.808-7.808-7.808-1.97 1.97 7.808 7.808-7.808 7.808 1.97 1.97 7.808-7.808 7.808 7.808 1.97-1.97-7.808-7.808 7.808-7.808z"/></symbol><symbol id="film" viewBox="0 0 32 32"><path fill="none" stroke="#fff" style="stroke:var(--color1,#fff)" stroke-linejoin="round" stroke-linecap="round" stroke-width="2.17" d="M26.427 2.667H5.574a2.907 2.907 0 0 0-2.907 2.907v20.853a2.907 2.907 0 0 0 2.907 2.907h20.853a2.907 2.907 0 0 0 2.907-2.907V5.574a2.907 2.907 0 0 0-2.907-2.907zM9.333 2.667v26.667M22.667 2.667v26.667M2.667 16h26.667M2.667 9.333h6.667M2.667 22.667h6.667M22.667 22.667h6.667M22.667 9.333h6.667"/></symbol><symbol id="heart" viewBox="0 0 34 32"><path d="m17.231 31.705-2.412-2.412C5.859 21.367.001 16.025.001 9.478.001 4.136 4.136.001 9.478.001c2.929 0 5.858 1.378 7.754 3.618 1.895-2.24 4.825-3.618 7.754-3.618 5.342 0 9.477 4.135 9.477 9.477 0 6.548-5.858 11.889-14.818 19.815l-2.412 2.412z"/></symbol><symbol id="search" viewBox="0 0 16 16"><svg width="16" height="16" fill="none" xmlns="http://www.w3.org/2000/svg"><path d="M7.333 12.667A5.333 5.333 0 1 0 7.333 2a5.333 5.333 0 0 0 0 10.667ZM14 14l-2.9-2.9" stroke="#000" stroke-linecap="round" stroke-linejoin="round"/></svg></symbol><symbol id="circle-left" viewBox="0 0 32 32"><svg xmlns="http://www.w3.org/2000/svg" width="32" height="32"><path d="M16 32c8.837 0 16-7.163 16-16S24.837 0 16 0 0 7.163 0 16s7.163 16 16 16zm0-29c7.18 0 13 5.82 13 13s-5.82 13-13 13S3 23.18 3 16 8.82 3 16 3z"/><path d="m20.914 9.914-2.829-2.829-8.914 8.914 8.914 8.914 2.828-2.828-6.086-6.086z"/></svg></symbol><symbol id="circle-right" viewBox="0 0 32 32"><svg xmlns="http://www.w3.org/2000/svg" width="32" height="32"><path d="M16 0C7.163 0 0 7.163 0 16s7.163 16 16 16 16-7.163 16-16S24.837 0 16 0zm0 29C8.82 29 3 23.18 3 16S8.82 3 16 3s13 5.82 13 13-5.82 13-13 13z"/><path d="m11.086 22.086 2.829 2.829 8.914-8.914-8.914-8.914-2.828 2.828 6.086 6.086z"/></svg></symbol><symbol id="sun" viewBox="0 0 32 32"><path d="M16 22.667c-3.68 0-6.667-2.987-6.667-6.667S12.32 9.333 16 9.333 22.667 12.32 22.667 16 19.68 22.667 16 22.667zM16 12c-2.2 0-4 1.8-4 4s1.8 4 4 4 4-1.8 4-4-1.8-4-4-4zm1.333-6.667v-4C17.333.6 16.733 0 16 0s-1.333.6-1.333 1.333v4c0 .733.6 1.333 1.333 1.333s1.333-.6 1.333-1.333zm0 25.334v-4c0-.733-.6-1.333-1.333-1.333s-1.333.6-1.333 1.333v4c0 .733.6 1.333 1.333 1.333s1.333-.6 1.333-1.333zM6.667 16c0-.733-.6-1.333-1.333-1.333h-4c-.733 0-1.333.6-1.333 1.333s.6 1.333 1.333 1.333h4c.733 0 1.333-.6 1.333-1.333zM32 16c0-.733-.6-1.333-1.333-1.333h-4c-.733 0-1.333.6-1.333 1.333s.6 1.333 1.333 1.333h4c.733 0 1.333-.6 1.333-1.333zM8.947 8.947c.52-.52.52-1.36 0-1.88L6.28 4.4c-.52-.52-1.36-.52-1.88 0s-.52 1.36 0 1.88l2.667 2.667c.267.267.6.387.947.387s.68-.133.947-.387zm18.666 18.666c.52-.52.52-1.36 0-1.88l-2.667-2.667c-.52-.52-1.36-.52-1.88 0s-.52 1.36 0 1.88l2.667 2.667c.267.267.6.387.947.387s.68-.133.947-.387zm-21.333 0 2.667-2.667c.52-.52.52-1.36 0-1.88s-1.36-.52-1.88 0L4.4 25.733A1.328 1.328 0 0 0 5.347 28c.347 0 .68-.133.947-.387zM24.947 8.947l2.667-2.667c.52-.52.52-1.36 0-1.88s-1.36-.52-1.88 0l-2.667 2.667a1.328 1.328 0 0 0 .947 2.267c.347 0 .68-.133.947-.387z"/></symbol><symbol id="moon" viewBox="0 0 32 32"><path d="M20 32a15.99 15.99 0 0 1-11.873-5.274l-.012-.014a15.798 15.798 0 0 1-4.123-10.669c0-.614.035-1.22.103-1.816l-.007.073C4.933 7.124 10.373 1.433 17.35.217l.097-.014c.799-.13 1.72-.204 2.658-.204 1.437 0 2.833.174 4.169.502l-.119-.025a3.34 3.34 0 0 1 2.504 3.228c0 .945-.393 1.798-1.025 2.405l-.001.001c-6.08 5.555-5.552 14.192 1.076 19.213a3.333 3.333 0 0 1-.911 5.752l-.023.007c-1.718.581-3.696.916-5.753.916h-.023H20z"/></symbol><symbol id="circle-up" viewBox="0 0 32 32"><path d="M0 16c0 8.837 7.163 16 16 16s16-7.163 16-16S24.837 0 16 0 0 7.163 0 16zm29 0c0 7.18-5.82 13-13 13S3 23.18 3 16 8.82 3 16 3s13 5.82 13 13z"/><path d="m22.086 20.914 2.829-2.829-8.914-8.914-8.914 8.914 2.828 2.828 6.086-6.086z"/></symbol><symbol id="circle-down" viewBox="0 0 32 32"><path d="M32 16c0-8.837-7.163-16-16-16S0 7.163 0 16s7.163 16 16 16 16-7.163 16-16zM3 16C3 8.82 8.82 3 16 3s13 5.82 13 13-5.82 13-13 13S3 23.18 3 16z"/><path d="m9.914 11.086-2.829 2.829 8.914 8.914 8.914-8.914-2.828-2.828-6.086 6.086z"/></symbol></defs></svg>