<svg aria-hidden="true" style="width:0;height:0;position:absolute;overflow:hidden" xmlns="http://www.w3.org/2000/svg"><defs><symbol id="arrow-up" viewBox="0 0 32 32"><path d="m27.414 12.586-10-10a2 2 0 0 0-2.828 0l-10 10a2 2 0 1 0 2.828 2.828L14 8.828V28a2 2 0 1 0 4 0V8.828l6.586 6.586c.39.39.902.586 1.414.586s1.024-.195 1.414-.586a2 2 0 0 0 0-2.828z"/></symbol><symbol id="arrow-up-circle" viewBox="0 0 32 32"><path d="M30.667 16c0-4.049-1.643-7.719-4.296-10.371S20.05 1.333 16 1.333 8.281 2.976 5.629 5.629 1.333 11.95 1.333 16s1.643 7.719 4.296 10.371S11.95 30.667 16 30.667s7.719-1.643 10.371-4.296S30.667 20.05 30.667 16zM28 16c0 3.315-1.341 6.312-3.515 8.485S19.314 28 16 28s-6.312-1.341-8.485-3.515S4 19.314 4 16s1.341-6.312 3.515-8.485S12.686 4 16 4s6.312 1.341 8.485 3.515S28 12.686 28 16zm-10.667 5.333v-7.448l3.057 3.057a1.332 1.332 0 1 0 1.885-1.885l-5.333-5.333a1.327 1.327 0 0 0-.943-.39c-.341 0-.683.131-.943.391l-5.333 5.333a1.332 1.332 0 1 0 1.885 1.885l3.057-3.057v7.448a1.333 1.333 0 0 0 2.666 0z"/></symbol><symbol id="circle-up" viewBox="0 0 32 32"><path d="M0 16c0 8.837 7.163 16 16 16s16-7.163 16-16S24.837 0 16 0 0 7.163 0 16zm29 0c0 7.18-5.82 13-13 13S3 23.18 3 16 8.82 3 16 3s13 5.82 13 13z"/><path d="m22.086 20.914 2.829-2.829-8.914-8.914-8.914 8.914 2.828 2.828 6.086-6.086z"/></symbol><symbol id="close" viewBox="0 0 32 32"><path stroke-width="2.133" d="m8.533 8.533 14.933 14.933M8.533 23.467 23.466 8.534"/></symbol><symbol id="copyright" viewBox="0 0 425 32"><path d="M15.683 15.799h2.281c0 1.635-.469 2.865-1.406 3.688-.927.813-2.188 1.219-3.781 1.219-1.104 0-2.063-.255-2.875-.766-.802-.51-1.427-1.219-1.875-2.125-.438-.906-.656-1.958-.656-3.156v-1.797c0-1.198.219-2.25.656-3.156C8.475 8.8 9.1 8.091 9.902 7.581c.813-.51 1.771-.766 2.875-.766 1.594 0 2.859.406 3.797 1.219s1.406 2.036 1.406 3.672h-2.281c0-1.031-.25-1.771-.75-2.219-.49-.448-1.214-.672-2.172-.672-.688 0-1.266.172-1.734.516s-.823.823-1.063 1.438c-.24.604-.359 1.297-.359 2.078v1.813c0 .792.12 1.495.359 2.109.24.604.594 1.078 1.063 1.422s1.047.516 1.734.516c.958 0 1.682-.224 2.172-.672s.734-1.193.734-2.234zM3.699 13.752c0 1.385.24 2.677.719 3.875s1.146 2.245 2 3.141c.854.896 1.844 1.594 2.969 2.094s2.328.75 3.609.75 2.479-.25 3.594-.75a9.087 9.087 0 0 0 2.953-2.094c.854-.896 1.521-1.943 2-3.141s.719-2.49.719-3.875c0-1.396-.24-2.688-.719-3.875s-1.146-2.224-2-3.109A8.88 8.88 0 0 0 16.59 4.69c-1.115-.5-2.313-.75-3.594-.75s-2.484.25-3.609.75a9.062 9.062 0 0 0-2.969 2.078c-.854.885-1.521 1.922-2 3.109s-.719 2.479-.719 3.875zm-1.797 0c0-1.656.286-3.193.859-4.609s1.37-2.651 2.391-3.703a10.938 10.938 0 0 1 3.531-2.469c1.344-.594 2.781-.891 4.313-.891s2.964.297 4.297.891a10.692 10.692 0 0 1 3.531 2.469c1.021 1.052 1.818 2.286 2.39 3.703s.859 2.953.859 4.609-.286 3.193-.859 4.609a11.764 11.764 0 0 1-2.39 3.734 10.909 10.909 0 0 1-3.531 2.484c-1.333.594-2.766.891-4.297.891s-2.969-.297-4.313-.891a11.154 11.154 0 0 1-3.531-2.484c-1.021-1.073-1.818-2.318-2.391-3.734s-.859-2.953-.859-4.609zm56.39 9.016v2.375H43.401v-2.078l7.453-8.297c.917-1.021 1.625-1.885 2.125-2.594.51-.719.865-1.359 1.063-1.922a5.092 5.092 0 0 0 .312-1.75c0-.75-.156-1.427-.469-2.031-.302-.615-.75-1.104-1.344-1.469s-1.312-.547-2.156-.547c-1.01 0-1.854.198-2.531.594-.666.385-1.167.927-1.5 1.625s-.5 1.5-.5 2.406h-2.891c0-1.281.281-2.453.844-3.516s1.396-1.906 2.5-2.531c1.104-.635 2.464-.953 4.078-.953 1.438 0 2.667.255 3.688.766 1.021.5 1.802 1.208 2.344 2.125.552.906.828 1.969.828 3.188a6.37 6.37 0 0 1-.344 2.031 10.313 10.313 0 0 1-.922 2.031 15.804 15.804 0 0 1-1.359 2 30.985 30.985 0 0 1-1.641 1.938l-6.094 6.609h11.406zm17.375-10.813v3.469c0 1.865-.167 3.438-.5 4.719s-.812 2.313-1.438 3.094a5.47 5.47 0 0 1-2.266 1.703c-.875.344-1.864.516-2.969.516-.875 0-1.682-.109-2.422-.328s-1.406-.568-2-1.047c-.583-.49-1.083-1.125-1.5-1.906s-.734-1.729-.953-2.844-.328-2.417-.328-3.906v-3.469c0-1.865.167-3.427.5-4.688.344-1.26.828-2.271 1.453-3.031.625-.771 1.375-1.323 2.25-1.656.885-.333 1.875-.5 2.969-.5.885 0 1.698.109 2.438.328.75.208 1.417.547 2 1.016.583.458 1.078 1.073 1.484 1.844.417.76.734 1.693.953 2.797s.328 2.401.328 3.891zm-2.906 3.938v-4.422c0-1.021-.062-1.917-.187-2.688-.115-.781-.286-1.448-.516-2s-.521-1-.875-1.344a3.088 3.088 0 0 0-1.203-.75 4.316 4.316 0 0 0-1.516-.25c-.688 0-1.297.13-1.828.391-.531.25-.979.651-1.344 1.203-.354.552-.625 1.276-.812 2.172s-.281 1.984-.281 3.266v4.422c0 1.021.057 1.922.172 2.703.125.781.307 1.458.547 2.031.24.563.531 1.026.875 1.391s.739.635 1.187.813a4.4 4.4 0 0 0 1.516.25c.708 0 1.328-.136 1.859-.406s.974-.693 1.328-1.266c.365-.583.635-1.328.813-2.234.177-.917.266-2.01.266-3.281zm21.531 6.875v2.375H79.401v-2.078l7.453-8.297c.917-1.021 1.625-1.885 2.125-2.594.51-.719.865-1.359 1.063-1.922a5.092 5.092 0 0 0 .312-1.75c0-.75-.156-1.427-.469-2.031-.302-.615-.75-1.104-1.344-1.469s-1.312-.547-2.156-.547c-1.01 0-1.854.198-2.531.594-.666.385-1.167.927-1.5 1.625s-.5 1.5-.5 2.406h-2.891c0-1.281.281-2.453.844-3.516s1.396-1.906 2.5-2.531c1.104-.635 2.464-.953 4.078-.953 1.438 0 2.667.255 3.688.766 1.021.5 1.802 1.208 2.344 2.125.552.906.828 1.969.828 3.188 0 .667-.115 1.344-.344 2.031a10.313 10.313 0 0 1-.922 2.031 15.804 15.804 0 0 1-1.359 2 30.985 30.985 0 0 1-1.641 1.938l-6.094 6.609h11.406zm7.313-10.422h2.063c1.01 0 1.844-.167 2.5-.5.667-.344 1.162-.807 1.485-1.391.333-.594.5-1.26.5-2 0-.875-.146-1.609-.438-2.203s-.729-1.042-1.312-1.344c-.583-.302-1.323-.453-2.219-.453-.813 0-1.531.161-2.156.484a3.542 3.542 0 0 0-1.453 1.344c-.344.583-.516 1.271-.516 2.063h-2.891c0-1.156.292-2.208.875-3.156s1.401-1.703 2.453-2.266c1.062-.563 2.292-.844 3.688-.844 1.375 0 2.578.245 3.609.734a5.376 5.376 0 0 1 2.406 2.156c.573.948.859 2.13.859 3.547 0 .573-.136 1.188-.406 1.844-.261.646-.672 1.25-1.234 1.813-.552.563-1.271 1.026-2.156 1.391-.885.354-1.948.531-3.188.531h-2.469v-1.75zm0 2.375v-1.734h2.469c1.448 0 2.646.172 3.594.516s1.693.802 2.234 1.375c.552.573.938 1.203 1.156 1.891.229.677.344 1.354.344 2.031 0 1.063-.182 2.005-.547 2.828a5.756 5.756 0 0 1-1.516 2.094c-.646.573-1.406 1.005-2.281 1.297s-1.828.438-2.859.438c-.99 0-1.922-.141-2.797-.422a7.223 7.223 0 0 1-2.297-1.219 5.71 5.71 0 0 1-1.563-1.984c-.375-.792-.563-1.693-.563-2.703h2.891c0 .792.172 1.484.515 2.078a3.657 3.657 0 0 0 1.5 1.391c.656.323 1.427.484 2.312.484s1.646-.151 2.281-.453a3.28 3.28 0 0 0 1.484-1.406c.354-.625.531-1.411.531-2.359s-.198-1.724-.594-2.328c-.396-.615-.958-1.068-1.687-1.359-.719-.302-1.568-.453-2.547-.453h-2.063zm24.906-12.328v26.969h-2.328V2.393h2.328zm21.734 2.015-7.531 20.734h-3.078l8.672-22.75h1.984l-.047 2.016zm6.313 20.735-7.547-20.734-.047-2.016h1.984l8.703 22.75h-3.094zm-.391-8.422v2.469h-12.781v-2.469h12.781zm9.235-15.578v24h-2.906v-24h2.906zm7.781 0v24h-2.906v-24h2.906zm13.016 1.25h7.531c1.708 0 3.151.26 4.328.781 1.187.521 2.088 1.292 2.703 2.313.625 1.01.938 2.255.938 3.734 0 1.042-.214 1.995-.641 2.859a6.096 6.096 0 0 1-1.813 2.188c-.781.594-1.719 1.036-2.812 1.328l-.844.328h-7.078l-.031-2.453h5.344c1.083 0 1.984-.188 2.703-.563.719-.385 1.26-.901 1.625-1.547s.547-1.359.547-2.141c0-.875-.172-1.641-.516-2.297s-.886-1.161-1.625-1.516c-.729-.365-1.672-.547-2.828-.547h-4.516v20.281h-3.016V2.391zm13.297 22.75-5.531-10.313 3.141-.016 5.609 10.141v.187h-3.219zm9.125-16.906v16.906h-2.906V8.237h2.906zm-3.125-4.485c0-.469.141-.865.422-1.188.292-.323.719-.484 1.281-.484.552 0 .974.161 1.266.484.302.323.453.719.453 1.188 0 .448-.151.833-.453 1.156-.292.313-.713.469-1.266.469-.563 0-.989-.156-1.281-.469a1.703 1.703 0 0 1-.422-1.156zm18.718 4.485h2.625v16.547c0 1.49-.302 2.76-.906 3.812s-1.448 1.849-2.531 2.391c-1.073.552-2.312.828-3.719.828-.583 0-1.271-.094-2.062-.281a8.296 8.296 0 0 1-2.312-.922 5.784 5.784 0 0 1-1.891-1.734l1.516-1.719c.708.854 1.448 1.448 2.219 1.781.781.334 1.552.5 2.312.5.917 0 1.708-.172 2.375-.516s1.182-.854 1.547-1.531c.375-.667.563-1.49.563-2.469V11.955l.266-3.719zm-11.64 8.64v-.328c0-1.292.151-2.464.453-3.516.312-1.063.755-1.974 1.328-2.734a5.96 5.96 0 0 1 2.109-1.75c.823-.417 1.75-.625 2.781-.625 1.063 0 1.99.187 2.781.562a5.356 5.356 0 0 1 2.031 1.609c.563.698 1.005 1.542 1.328 2.531s.547 2.109.672 3.359v1.438c-.114 1.24-.339 2.354-.672 3.344-.323.99-.766 1.833-1.328 2.531a5.556 5.556 0 0 1-2.031 1.609c-.802.365-1.739.547-2.813.547-1.01 0-1.927-.213-2.75-.641-.812-.427-1.51-1.026-2.094-1.797s-1.031-1.677-1.344-2.719c-.302-1.052-.453-2.193-.453-3.422zm2.89-.328v.328c0 .844.083 1.635.25 2.375.177.74.443 1.391.797 1.953a4.03 4.03 0 0 0 1.391 1.328c.563.313 1.234.469 2.016.469.958 0 1.75-.203 2.375-.609s1.12-.943 1.484-1.609a9.29 9.29 0 0 0 .875-2.172v-3.766a7.726 7.726 0 0 0-.531-1.656 5.098 5.098 0 0 0-.906-1.438c-.365-.427-.818-.766-1.359-1.016s-1.177-.375-1.906-.375c-.792 0-1.474.167-2.047.5a3.988 3.988 0 0 0-1.391 1.344c-.354.563-.62 1.219-.797 1.969-.167.74-.25 1.531-.25 2.375zm18.657-15.406v24h-2.891v-24h2.891zm-.688 14.906-1.202-.047c.009-1.156.181-2.224.514-3.203.334-.99.802-1.849 1.406-2.578a6.278 6.278 0 0 1 2.158-1.688c.843-.406 1.776-.609 2.795-.609.834 0 1.584.115 2.251.344a4.088 4.088 0 0 1 1.703 1.063c.48.49.843 1.125 1.093 1.906.251.771.375 1.714.375 2.828v11.078h-2.905V14.034c0-.885-.13-1.594-.391-2.125-.261-.542-.64-.932-1.141-1.172-.501-.25-1.115-.375-1.845-.375-.718 0-1.374.151-1.968.453a4.712 4.712 0 0 0-1.515 1.25 6.319 6.319 0 0 0-.985 1.828 6.685 6.685 0 0 0-.343 2.156zm22.501-7.812v2.219h-9.141V8.237h9.141zm-6.048-4.11h2.891v16.828c0 .573.089 1.005.265 1.297.178.292.407.484.688.578s.583.141.905.141c.24 0 .491-.021.75-.062.272-.052.475-.094.61-.125l.016 2.359a6.713 6.713 0 0 1-.907.203 6.873 6.873 0 0 1-1.328.109c-.709 0-1.358-.141-1.952-.422s-1.067-.75-1.422-1.406c-.345-.667-.517-1.562-.517-2.687V4.127zm19.282 16.532c0-.417-.094-.802-.281-1.156-.178-.365-.549-.693-1.111-.984-.551-.302-1.385-.563-2.498-.781a19.832 19.832 0 0 1-2.549-.703c-.75-.271-1.39-.599-1.92-.984-.521-.385-.923-.839-1.205-1.359s-.421-1.13-.421-1.828c0-.667.144-1.297.437-1.891a5.074 5.074 0 0 1 1.266-1.578c.551-.458 1.214-.818 1.984-1.078s1.63-.391 2.578-.391c1.353 0 2.51.24 3.467.719.96.479 1.694 1.12 2.203 1.922a4.76 4.76 0 0 1 .766 2.641h-2.889c0-.469-.142-.922-.423-1.359-.272-.448-.672-.818-1.202-1.109-.521-.292-1.163-.438-1.922-.438-.802 0-1.454.125-1.954.375-.489.24-.848.547-1.077.922a2.32 2.32 0 0 0-.329 1.188c0 .313.053.594.155.844.117.24.313.464.594.672.281.198.677.385 1.189.563.51.177 1.161.354 1.952.531 1.385.312 2.526.688 3.422 1.125s1.563.974 2 1.609c.439.635.656 1.406.656 2.313 0 .74-.155 1.417-.469 2.031a4.513 4.513 0 0 1-1.328 1.594c-.571.438-1.259.781-2.062 1.031-.791.24-1.682.359-2.672.359-1.49 0-2.75-.266-3.781-.797s-1.813-1.219-2.345-2.063c-.53-.844-.795-1.734-.795-2.672h2.905c.041.792.272 1.422.688 1.891.416.458.928.786 1.531.984a6.042 6.042 0 0 0 1.797.281c.791 0 1.454-.104 1.984-.313.542-.208.953-.495 1.234-.859s.423-.781.423-1.25zm15.063-18.266h7.531c1.707 0 3.15.26 4.327.781 1.189.521 2.089 1.292 2.704 2.313.624 1.01.937 2.255.937 3.734 0 1.042-.215 1.995-.64 2.859a6.116 6.116 0 0 1-1.813 2.188c-.782.594-1.719 1.036-2.814 1.328l-.843.328h-7.079l-.03-2.453h5.344c1.081 0 1.984-.188 2.702-.563.72-.385 1.262-.901 1.625-1.547a4.263 4.263 0 0 0 .546-2.141c0-.875-.171-1.641-.514-2.297-.345-.656-.887-1.161-1.625-1.516-.729-.365-1.673-.547-2.827-.547h-4.517v20.281h-3.015V2.391zm13.296 22.75-5.531-10.313 3.141-.016 5.609 10.141v.187h-3.218zm12.999.312c-1.177 0-2.245-.198-3.202-.594a7.254 7.254 0 0 1-2.453-1.703 7.584 7.584 0 0 1-1.563-2.594c-.363-1-.546-2.094-.546-3.281v-.656c0-1.375.203-2.599.61-3.672.405-1.083.958-2 1.655-2.75a7.104 7.104 0 0 1 2.375-1.703 6.837 6.837 0 0 1 2.75-.578c1.209 0 2.251.208 3.127.625.885.417 1.609 1 2.171 1.75.562.74.978 1.615 1.25 2.625.27 1 .405 2.094.405 3.281v1.297h-12.624v-2.359h9.735v-.219a7.222 7.222 0 0 0-.469-2.188 3.952 3.952 0 0 0-1.25-1.75c-.574-.458-1.355-.688-2.345-.688-.656 0-1.259.141-1.813.422a3.885 3.885 0 0 0-1.422 1.219c-.395.542-.702 1.203-.921 1.984s-.329 1.682-.329 2.703v.656c0 .802.11 1.557.329 2.266.229.698.558 1.313.985 1.844.437.531.962.948 1.577 1.25.626.302 1.333.453 2.126.453 1.019 0 1.886-.208 2.594-.625a6.436 6.436 0 0 0 1.858-1.672l1.751 1.391c-.366.552-.83 1.078-1.392 1.578s-1.255.906-2.078 1.219c-.811.313-1.776.469-2.891.469zm19.799-4.796c0-.417-.094-.802-.281-1.156-.178-.365-.549-.693-1.111-.984-.551-.302-1.385-.563-2.501-.781a19.826 19.826 0 0 1-2.546-.703c-.75-.271-1.39-.599-1.922-.984-.519-.385-.921-.839-1.202-1.359s-.423-1.13-.423-1.828c0-.667.146-1.297.439-1.891a5.074 5.074 0 0 1 1.266-1.578c.551-.458 1.211-.818 1.984-1.078.77-.26 1.63-.391 2.578-.391 1.353 0 2.51.24 3.467.719s1.694 1.12 2.203 1.922c.51.792.766 1.672.766 2.641h-2.891a2.47 2.47 0 0 0-.421-1.359c-.272-.448-.672-.818-1.205-1.109-.519-.292-1.161-.438-1.92-.438-.802 0-1.454.125-1.954.375-.489.24-.848.547-1.079.922a2.338 2.338 0 0 0-.327 1.188c0 .313.053.594.155.844.114.24.313.464.594.672.281.198.677.385 1.189.563.51.177 1.161.354 1.952.531 1.385.312 2.526.688 3.422 1.125s1.563.974 2 1.609c.439.635.656 1.406.656 2.313 0 .74-.155 1.417-.469 2.031a4.513 4.513 0 0 1-1.328 1.594c-.574.438-1.259.781-2.062 1.031-.793.24-1.682.359-2.672.359-1.49 0-2.75-.266-3.781-.797-1.033-.531-1.813-1.219-2.345-2.063-.53-.844-.795-1.734-.795-2.672h2.905c.041.792.27 1.422.688 1.891a3.5 3.5 0 0 0 1.531.984 6.042 6.042 0 0 0 1.797.281c.791 0 1.454-.104 1.984-.313.542-.208.953-.495 1.234-.859s.423-.781.423-1.25zm13.702 4.796c-1.177 0-2.245-.198-3.205-.594a7.284 7.284 0 0 1-2.453-1.703 7.548 7.548 0 0 1-1.561-2.594c-.366-1-.549-2.094-.549-3.281v-.656c0-1.375.203-2.599.61-3.672.407-1.083.958-2 1.655-2.75a7.091 7.091 0 0 1 2.377-1.703 6.823 6.823 0 0 1 2.75-.578c1.207 0 2.249.208 3.125.625.885.417 1.609 1 2.171 1.75.562.74.978 1.615 1.25 2.625.27 1 .407 2.094.407 3.281v1.297h-12.626v-2.359h9.735v-.219a7.222 7.222 0 0 0-.469-2.188c-.261-.708-.677-1.292-1.25-1.75s-1.353-.688-2.343-.688c-.656 0-1.262.141-1.813.422a3.853 3.853 0 0 0-1.422 1.219c-.398.542-.704 1.203-.923 1.984-.217.781-.327 1.682-.327 2.703v.656c0 .802.11 1.557.327 2.266.231.698.558 1.313.985 1.844.437.531.965.948 1.577 1.25.626.302 1.335.453 2.126.453 1.022 0 1.886-.208 2.594-.625s1.328-.974 1.858-1.672l1.751 1.391a8.116 8.116 0 0 1-1.39 1.578c-.565.5-1.257.906-2.08 1.219-.811.313-1.776.469-2.889.469zm12.844-14.562v14.25h-2.891V8.237h2.814l.078 2.656zm5.28-2.75-.014 2.688a4.288 4.288 0 0 0-.688-.094 7.267 7.267 0 0 0-.72-.031c-.665 0-1.255.104-1.765.313s-.944.5-1.298.875a4.24 4.24 0 0 0-.843 1.344 6.552 6.552 0 0 0-.391 1.688l-.811.469c0-1.021.098-1.979.297-2.875.208-.896.526-1.688.953-2.375a4.664 4.664 0 0 1 1.625-1.625c.665-.396 1.458-.594 2.375-.594.208 0 .448.026.718.078.272.042.459.089.562.141zm8.094 14.391 4.626-14.297h2.953l-6.078 16.906h-1.938l.437-2.609zm-3.859-14.297 4.766 14.375.327 2.531h-1.936l-6.126-16.906h2.969zm21.015 17.218c-1.177 0-2.245-.198-3.202-.594a7.235 7.235 0 0 1-2.453-1.703c-.679-.729-1.198-1.594-1.563-2.594-.363-1-.546-2.094-.546-3.281v-.656c0-1.375.203-2.599.608-3.672.407-1.083.96-2 1.657-2.75s1.49-1.318 2.375-1.703a6.83 6.83 0 0 1 2.75-.578c1.209 0 2.251.208 3.125.625.887.417 1.611 1 2.174 1.75.562.74.978 1.615 1.248 2.625.272 1 .407 2.094.407 3.281v1.297h-12.624v-2.359h9.735v-.219a7.225 7.225 0 0 0-.471-2.188 3.925 3.925 0 0 0-1.248-1.75c-.574-.458-1.355-.688-2.345-.688-.656 0-1.259.141-1.813.422-.551.271-1.026.677-1.422 1.219s-.702 1.203-.921 1.984c-.219.781-.329 1.682-.329 2.703v.656c0 .802.11 1.557.329 2.266.229.698.558 1.313.985 1.844.437.531.962.948 1.577 1.25.624.302 1.333.453 2.126.453 1.019 0 1.886-.208 2.592-.625a6.446 6.446 0 0 0 1.861-1.672l1.751 1.391c-.366.552-.83 1.078-1.392 1.578s-1.255.906-2.078 1.219c-.814.313-1.776.469-2.891.469zm20.61-3.593V1.143h2.905v24h-2.656l-.249-3.281zm-11.376-4.985v-.328c0-1.292.158-2.464.469-3.516.325-1.063.777-1.974 1.36-2.734a6.16 6.16 0 0 1 2.11-1.75c.823-.417 1.739-.625 2.75-.625 1.063 0 1.991.187 2.782.562a5.367 5.367 0 0 1 2.032 1.609c.562.698 1.003 1.542 1.328 2.531.322.99.546 2.109.672 3.359v1.438c-.117 1.24-.341 2.354-.672 3.344-.325.99-.766 1.833-1.328 2.531a5.568 5.568 0 0 1-2.032 1.609c-.802.365-1.739.547-2.814.547-.99 0-1.895-.213-2.718-.641a6.444 6.444 0 0 1-2.11-1.797c-.583-.771-1.035-1.677-1.36-2.719-.311-1.052-.469-2.193-.469-3.422zm2.908-.328v.328c0 .844.082 1.635.249 2.375.178.74.448 1.391.814 1.953a4.01 4.01 0 0 0 1.39 1.328c.562.313 1.234.469 2.016.469.958 0 1.744-.203 2.359-.609.626-.406 1.125-.943 1.499-1.609s.667-1.391.875-2.172v-3.766a8.37 8.37 0 0 0-.546-1.656 5.124 5.124 0 0 0-.907-1.438 3.897 3.897 0 0 0-1.358-1.016c-.533-.25-1.161-.375-1.89-.375-.793 0-1.474.167-2.048.5a3.986 3.986 0 0 0-1.39 1.344c-.366.563-.635 1.219-.814 1.969-.167.74-.249 1.531-.249 2.375zm26.688-14.156v26.969h-2.329V2.393h2.329z"/></symbol><symbol id="film" viewBox="0 0 32 32"><path fill="none" stroke="#fff" style="stroke:var(--color1,#fff)" stroke-linejoin="round" stroke-linecap="round" stroke-width="2.17" d="M26.427 2.667H5.574a2.907 2.907 0 0 0-2.907 2.907v20.853a2.907 2.907 0 0 0 2.907 2.907h20.853a2.907 2.907 0 0 0 2.907-2.907V5.574a2.907 2.907 0 0 0-2.907-2.907zM9.333 2.667v26.667M22.667 2.667v26.667M2.667 16h26.667M2.667 9.333h6.667M2.667 22.667h6.667M22.667 22.667h6.667M22.667 9.333h6.667"/></symbol><symbol id="heart" viewBox="0 0 34 32"><path d="m17.231 31.705-2.412-2.412C5.859 21.367.001 16.025.001 9.478.001 4.136 4.136.001 9.478.001c2.929 0 5.858 1.378 7.754 3.618 1.895-2.24 4.825-3.618 7.754-3.618 5.342 0 9.477 4.135 9.477 9.477 0 6.548-5.858 11.889-14.818 19.815l-2.412 2.412z"/></symbol><symbol id="search" viewBox="0 0 16 16"><svg width="16" height="16" fill="none" xmlns="http://www.w3.org/2000/svg"><path d="M7.333 12.667A5.333 5.333 0 1 0 7.333 2a5.333 5.333 0 0 0 0 10.667ZM14 14l-2.9-2.9" stroke="#000" stroke-linecap="round" stroke-linejoin="round"/></svg></symbol></defs></svg>