<svg aria-hidden="true" style="position: absolute; width: 0; height: 0; overflow: hidden;" version="1.1" xmlns="http://www.w3.org/2000/svg" xmlns:xlink="http://www.w3.org/1999/xlink">
<defs>
<symbol id="arrow-up" viewBox="0 0 32 32">
<path d="M27.414 12.586l-10-10c-0.781-0.781-2.047-0.781-2.828 0l-10 10c-0.781 0.781-0.781 2.047 0 2.828s2.047 0.781 2.828 0l6.586-6.586v19.172c0 1.105 0.895 2 2 2s2-0.895 2-2v-19.172l6.586 6.586c0.39 0.39 0.902 0.586 1.414 0.586s1.024-0.195 1.414-0.586c0.781-0.781 0.781-2.047 0-2.828z"></path>
</symbol>
<symbol id="arrow-up-circle" viewBox="0 0 32 32">
<path d="M30.667 16c0-4.049-1.643-7.719-4.296-10.371s-6.321-4.296-10.371-4.296-7.719 1.643-10.371 4.296-4.296 6.321-4.296 10.371 1.643 7.719 4.296 10.371 6.321 4.296 10.371 4.296 7.719-1.643 10.371-4.296 4.296-6.321 4.296-10.371zM28 16c0 3.315-1.341 6.312-3.515 8.485s-5.171 3.515-8.485 3.515-6.312-1.341-8.485-3.515-3.515-5.171-3.515-8.485 1.341-6.312 3.515-8.485 5.171-3.515 8.485-3.515 6.312 1.341 8.485 3.515 3.515 5.171 3.515 8.485zM17.333 21.333v-7.448l3.057 3.057c0.521 0.521 1.365 0.521 1.885 0s0.521-1.365 0-1.885l-5.333-5.333c-0.128-0.128-0.275-0.224-0.432-0.289-0.163-0.068-0.337-0.101-0.511-0.101-0.341 0-0.683 0.131-0.943 0.391l-5.333 5.333c-0.521 0.521-0.521 1.365 0 1.885s1.365 0.521 1.885 0l3.057-3.057v7.448c0 0.736 0.597 1.333 1.333 1.333s1.333-0.597 1.333-1.333z"></path>
</symbol>
<symbol id="circle-up" viewBox="0 0 32 32">
<path d="M0 16c0 8.837 7.163 16 16 16s16-7.163 16-16-7.163-16-16-16-16 7.163-16 16zM29 16c0 7.18-5.82 13-13 13s-13-5.82-13-13 5.82-13 13-13 13 5.82 13 13z"></path>
<path d="M22.086 20.914l2.829-2.829-8.914-8.914-8.914 8.914 2.828 2.828 6.086-6.086z"></path>
</symbol>
<symbol id="close" viewBox="0 0 32 32">
<path stroke-linejoin="miter" stroke-linecap="butt" stroke-miterlimit="4" stroke-width="2.1333" d="M8.533 8.533l14.933 14.933"></path>
<path stroke-linejoin="miter" stroke-linecap="butt" stroke-miterlimit="4" stroke-width="2.1333" d="M8.533 23.467l14.933-14.933"></path>
</symbol>
<symbol id="copyright" viewBox="0 0 425 32">
<path d="M15.683 15.799h2.281c0 1.635-0.469 2.865-1.406 3.688-0.927 0.813-2.188 1.219-3.781 1.219-1.104 0-2.063-0.255-2.875-0.766-0.802-0.51-1.427-1.219-1.875-2.125-0.438-0.906-0.656-1.958-0.656-3.156v-1.797c0-1.198 0.219-2.25 0.656-3.156 0.448-0.906 1.073-1.615 1.875-2.125 0.813-0.51 1.771-0.766 2.875-0.766 1.594 0 2.859 0.406 3.797 1.219s1.406 2.036 1.406 3.672h-2.281c0-1.031-0.25-1.771-0.75-2.219-0.49-0.448-1.214-0.672-2.172-0.672-0.688 0-1.266 0.172-1.734 0.516s-0.823 0.823-1.063 1.438c-0.24 0.604-0.359 1.297-0.359 2.078v1.813c0 0.792 0.12 1.495 0.359 2.109 0.24 0.604 0.594 1.078 1.063 1.422s1.047 0.516 1.734 0.516c0.958 0 1.682-0.224 2.172-0.672s0.734-1.193 0.734-2.234zM3.699 13.752c0 1.385 0.24 2.677 0.719 3.875s1.146 2.245 2 3.141c0.854 0.896 1.844 1.594 2.969 2.094s2.328 0.75 3.609 0.75 2.479-0.25 3.594-0.75c1.125-0.5 2.109-1.198 2.953-2.094 0.854-0.896 1.521-1.943 2-3.141s0.719-2.49 0.719-3.875c0-1.396-0.24-2.688-0.719-3.875s-1.146-2.224-2-3.109c-0.844-0.896-1.828-1.589-2.953-2.078-1.115-0.5-2.313-0.75-3.594-0.75s-2.484 0.25-3.609 0.75c-1.125 0.49-2.115 1.182-2.969 2.078-0.854 0.885-1.521 1.922-2 3.109s-0.719 2.479-0.719 3.875zM1.902 13.752c0-1.656 0.286-3.193 0.859-4.609s1.37-2.651 2.391-3.703c1.021-1.063 2.198-1.885 3.531-2.469 1.344-0.594 2.781-0.891 4.313-0.891s2.964 0.297 4.297 0.891c1.344 0.583 2.521 1.406 3.531 2.469 1.021 1.052 1.818 2.286 2.39 3.703s0.859 2.953 0.859 4.609-0.286 3.193-0.859 4.609c-0.573 1.417-1.37 2.661-2.39 3.734-1.010 1.062-2.188 1.891-3.531 2.484-1.333 0.594-2.766 0.891-4.297 0.891s-2.969-0.297-4.313-0.891c-1.333-0.594-2.51-1.422-3.531-2.484-1.021-1.073-1.818-2.318-2.391-3.734s-0.859-2.953-0.859-4.609zM58.292 22.768v2.375h-14.891v-2.078l7.453-8.297c0.917-1.021 1.625-1.885 2.125-2.594 0.51-0.719 0.865-1.359 1.063-1.922 0.208-0.573 0.312-1.156 0.312-1.75 0-0.75-0.156-1.427-0.469-2.031-0.302-0.615-0.75-1.104-1.344-1.469s-1.312-0.547-2.156-0.547c-1.010 0-1.854 0.198-2.531 0.594-0.666 0.385-1.167 0.927-1.5 1.625s-0.5 1.5-0.5 2.406h-2.891c0-1.281 0.281-2.453 0.844-3.516s1.396-1.906 2.5-2.531c1.104-0.635 2.464-0.953 4.078-0.953 1.438 0 2.667 0.255 3.688 0.766 1.021 0.5 1.802 1.208 2.344 2.125 0.552 0.906 0.828 1.969 0.828 3.188 0 0.667-0.114 1.344-0.344 2.031-0.219 0.677-0.526 1.354-0.922 2.031-0.385 0.677-0.839 1.344-1.359 2-0.51 0.656-1.057 1.302-1.641 1.938l-6.094 6.609h11.406zM75.667 11.955v3.469c0 1.865-0.167 3.438-0.5 4.719s-0.812 2.313-1.438 3.094c-0.625 0.781-1.38 1.349-2.266 1.703-0.875 0.344-1.864 0.516-2.969 0.516-0.875 0-1.682-0.109-2.422-0.328s-1.406-0.568-2-1.047c-0.583-0.49-1.083-1.125-1.5-1.906s-0.734-1.729-0.953-2.844-0.328-2.417-0.328-3.906v-3.469c0-1.865 0.167-3.427 0.5-4.688 0.344-1.26 0.828-2.271 1.453-3.031 0.625-0.771 1.375-1.323 2.25-1.656 0.885-0.333 1.875-0.5 2.969-0.5 0.885 0 1.698 0.109 2.438 0.328 0.75 0.208 1.417 0.547 2 1.016 0.583 0.458 1.078 1.073 1.484 1.844 0.417 0.76 0.734 1.693 0.953 2.797s0.328 2.401 0.328 3.891zM72.761 15.893v-4.422c0-1.021-0.062-1.917-0.187-2.688-0.115-0.781-0.286-1.448-0.516-2s-0.521-1-0.875-1.344c-0.344-0.344-0.745-0.594-1.203-0.75-0.448-0.167-0.953-0.25-1.516-0.25-0.688 0-1.297 0.13-1.828 0.391-0.531 0.25-0.979 0.651-1.344 1.203-0.354 0.552-0.625 1.276-0.812 2.172s-0.281 1.984-0.281 3.266v4.422c0 1.021 0.057 1.922 0.172 2.703 0.125 0.781 0.307 1.458 0.547 2.031 0.24 0.563 0.531 1.026 0.875 1.391s0.739 0.635 1.187 0.813c0.458 0.167 0.964 0.25 1.516 0.25 0.708 0 1.328-0.136 1.859-0.406s0.974-0.693 1.328-1.266c0.365-0.583 0.635-1.328 0.813-2.234 0.177-0.917 0.266-2.010 0.266-3.281zM94.292 22.768v2.375h-14.891v-2.078l7.453-8.297c0.917-1.021 1.625-1.885 2.125-2.594 0.51-0.719 0.865-1.359 1.063-1.922 0.208-0.573 0.312-1.156 0.312-1.75 0-0.75-0.156-1.427-0.469-2.031-0.302-0.615-0.75-1.104-1.344-1.469s-1.312-0.547-2.156-0.547c-1.010 0-1.854 0.198-2.531 0.594-0.666 0.385-1.167 0.927-1.5 1.625s-0.5 1.5-0.5 2.406h-2.891c0-1.281 0.281-2.453 0.844-3.516s1.396-1.906 2.5-2.531c1.104-0.635 2.464-0.953 4.078-0.953 1.438 0 2.667 0.255 3.688 0.766 1.021 0.5 1.802 1.208 2.344 2.125 0.552 0.906 0.828 1.969 0.828 3.188 0 0.667-0.115 1.344-0.344 2.031-0.219 0.677-0.526 1.354-0.922 2.031-0.385 0.677-0.839 1.344-1.359 2-0.51 0.656-1.057 1.302-1.641 1.938l-6.094 6.609h11.406zM101.605 12.346h2.063c1.010 0 1.844-0.167 2.5-0.5 0.667-0.344 1.162-0.807 1.485-1.391 0.333-0.594 0.5-1.26 0.5-2 0-0.875-0.146-1.609-0.438-2.203s-0.729-1.042-1.312-1.344c-0.583-0.302-1.323-0.453-2.219-0.453-0.813 0-1.531 0.161-2.156 0.484-0.615 0.313-1.099 0.76-1.453 1.344-0.344 0.583-0.516 1.271-0.516 2.063h-2.891c0-1.156 0.292-2.208 0.875-3.156s1.401-1.703 2.453-2.266c1.062-0.563 2.292-0.844 3.688-0.844 1.375 0 2.578 0.245 3.609 0.734 1.031 0.479 1.833 1.198 2.406 2.156 0.573 0.948 0.859 2.13 0.859 3.547 0 0.573-0.136 1.188-0.406 1.844-0.261 0.646-0.672 1.25-1.234 1.813-0.552 0.563-1.271 1.026-2.156 1.391-0.885 0.354-1.948 0.531-3.188 0.531h-2.469v-1.75zM101.605 14.721v-1.734h2.469c1.448 0 2.646 0.172 3.594 0.516s1.693 0.802 2.234 1.375c0.552 0.573 0.938 1.203 1.156 1.891 0.229 0.677 0.344 1.354 0.344 2.031 0 1.063-0.182 2.005-0.547 2.828-0.354 0.823-0.859 1.521-1.516 2.094-0.646 0.573-1.406 1.005-2.281 1.297s-1.828 0.438-2.859 0.438c-0.99 0-1.922-0.141-2.797-0.422-0.865-0.281-1.63-0.687-2.297-1.219-0.667-0.541-1.187-1.203-1.563-1.984-0.375-0.792-0.563-1.693-0.563-2.703h2.891c0 0.792 0.172 1.484 0.515 2.078 0.354 0.594 0.854 1.057 1.5 1.391 0.656 0.323 1.427 0.484 2.312 0.484s1.646-0.151 2.281-0.453c0.646-0.312 1.141-0.781 1.484-1.406 0.354-0.625 0.531-1.411 0.531-2.359s-0.198-1.724-0.594-2.328c-0.396-0.615-0.958-1.068-1.687-1.359-0.719-0.302-1.568-0.453-2.547-0.453h-2.063zM126.511 2.393v26.969h-2.328v-26.969h2.328zM148.245 4.408l-7.531 20.734h-3.078l8.672-22.75h1.984l-0.047 2.016zM154.558 25.143l-7.547-20.734-0.047-2.016h1.984l8.703 22.75h-3.094zM154.167 16.721v2.469h-12.781v-2.469h12.781zM163.402 1.143v24h-2.906v-24h2.906zM171.183 1.143v24h-2.906v-24h2.906zM184.199 2.393h7.531c1.708 0 3.151 0.26 4.328 0.781 1.187 0.521 2.088 1.292 2.703 2.313 0.625 1.010 0.938 2.255 0.938 3.734 0 1.042-0.214 1.995-0.641 2.859-0.417 0.854-1.021 1.583-1.813 2.188-0.781 0.594-1.719 1.036-2.812 1.328l-0.844 0.328h-7.078l-0.031-2.453h5.344c1.083 0 1.984-0.188 2.703-0.563 0.719-0.385 1.26-0.901 1.625-1.547s0.547-1.359 0.547-2.141c0-0.875-0.172-1.641-0.516-2.297s-0.886-1.161-1.625-1.516c-0.729-0.365-1.672-0.547-2.828-0.547h-4.516v20.281h-3.016v-22.75zM197.496 25.143l-5.531-10.313 3.141-0.016 5.609 10.141v0.187h-3.219zM206.621 8.237v16.906h-2.906v-16.906h2.906zM203.496 3.752c0-0.469 0.141-0.865 0.422-1.188 0.292-0.323 0.719-0.484 1.281-0.484 0.552 0 0.974 0.161 1.266 0.484 0.302 0.323 0.453 0.719 0.453 1.188 0 0.448-0.151 0.833-0.453 1.156-0.292 0.313-0.713 0.469-1.266 0.469-0.563 0-0.989-0.156-1.281-0.469-0.281-0.323-0.422-0.708-0.422-1.156zM222.214 8.237h2.625v16.547c0 1.49-0.302 2.76-0.906 3.812s-1.448 1.849-2.531 2.391c-1.073 0.552-2.312 0.828-3.719 0.828-0.583 0-1.271-0.094-2.062-0.281-0.781-0.177-1.552-0.484-2.312-0.922-0.75-0.427-1.38-1.005-1.891-1.734l1.516-1.719c0.708 0.854 1.448 1.448 2.219 1.781 0.781 0.334 1.552 0.5 2.312 0.5 0.917 0 1.708-0.172 2.375-0.516s1.182-0.854 1.547-1.531c0.375-0.667 0.563-1.49 0.563-2.469v-12.969l0.266-3.719zM210.574 16.877v-0.328c0-1.292 0.151-2.464 0.453-3.516 0.312-1.063 0.755-1.974 1.328-2.734 0.583-0.76 1.286-1.344 2.109-1.75 0.823-0.417 1.75-0.625 2.781-0.625 1.063 0 1.99 0.187 2.781 0.562 0.802 0.365 1.479 0.901 2.031 1.609 0.563 0.698 1.005 1.542 1.328 2.531s0.547 2.109 0.672 3.359v1.438c-0.114 1.24-0.339 2.354-0.672 3.344-0.323 0.99-0.766 1.833-1.328 2.531-0.552 0.698-1.229 1.234-2.031 1.609-0.802 0.365-1.739 0.547-2.813 0.547-1.010 0-1.927-0.213-2.75-0.641-0.812-0.427-1.51-1.026-2.094-1.797s-1.031-1.677-1.344-2.719c-0.302-1.052-0.453-2.193-0.453-3.422zM213.464 16.549v0.328c0 0.844 0.083 1.635 0.25 2.375 0.177 0.74 0.443 1.391 0.797 1.953 0.365 0.563 0.828 1.005 1.391 1.328 0.563 0.313 1.234 0.469 2.016 0.469 0.958 0 1.75-0.203 2.375-0.609s1.12-0.943 1.484-1.609c0.375-0.667 0.667-1.391 0.875-2.172v-3.766c-0.115-0.573-0.292-1.125-0.531-1.656-0.229-0.542-0.531-1.021-0.906-1.438-0.365-0.427-0.818-0.766-1.359-1.016s-1.177-0.375-1.906-0.375c-0.792 0-1.474 0.167-2.047 0.5-0.563 0.323-1.026 0.771-1.391 1.344-0.354 0.563-0.62 1.219-0.797 1.969-0.167 0.74-0.25 1.531-0.25 2.375zM232.121 1.143v24h-2.891v-24h2.891zM231.433 16.049l-1.202-0.047c0.009-1.156 0.181-2.224 0.514-3.203 0.334-0.99 0.802-1.849 1.406-2.578 0.606-0.729 1.323-1.292 2.158-1.688 0.843-0.406 1.776-0.609 2.795-0.609 0.834 0 1.584 0.115 2.251 0.344 0.665 0.219 1.234 0.573 1.703 1.063 0.48 0.49 0.843 1.125 1.093 1.906 0.251 0.771 0.375 1.714 0.375 2.828v11.078h-2.905v-11.109c0-0.885-0.13-1.594-0.391-2.125-0.261-0.542-0.64-0.932-1.141-1.172-0.501-0.25-1.115-0.375-1.845-0.375-0.718 0-1.374 0.151-1.968 0.453-0.583 0.302-1.088 0.719-1.515 1.25-0.416 0.531-0.745 1.141-0.985 1.828-0.229 0.677-0.343 1.396-0.343 2.156zM253.934 8.237v2.219h-9.141v-2.219h9.141zM247.886 4.127h2.891v16.828c0 0.573 0.089 1.005 0.265 1.297 0.178 0.292 0.407 0.484 0.688 0.578s0.583 0.141 0.905 0.141c0.24 0 0.491-0.021 0.75-0.062 0.272-0.052 0.475-0.094 0.61-0.125l0.016 2.359c-0.229 0.073-0.533 0.141-0.907 0.203-0.363 0.073-0.807 0.109-1.328 0.109-0.709 0-1.358-0.141-1.952-0.422s-1.067-0.75-1.422-1.406c-0.345-0.667-0.517-1.562-0.517-2.687v-16.813zM267.168 20.659c0-0.417-0.094-0.802-0.281-1.156-0.178-0.365-0.549-0.693-1.111-0.984-0.551-0.302-1.385-0.563-2.498-0.781-0.939-0.198-1.787-0.432-2.549-0.703-0.75-0.271-1.39-0.599-1.92-0.984-0.521-0.385-0.923-0.839-1.205-1.359s-0.421-1.13-0.421-1.828c0-0.667 0.144-1.297 0.437-1.891 0.302-0.594 0.725-1.12 1.266-1.578 0.551-0.458 1.214-0.818 1.984-1.078s1.63-0.391 2.578-0.391c1.353 0 2.51 0.24 3.467 0.719 0.96 0.479 1.694 1.12 2.203 1.922 0.512 0.792 0.766 1.672 0.766 2.641h-2.889c0-0.469-0.142-0.922-0.423-1.359-0.272-0.448-0.672-0.818-1.202-1.109-0.521-0.292-1.163-0.438-1.922-0.438-0.802 0-1.454 0.125-1.954 0.375-0.489 0.24-0.848 0.547-1.077 0.922-0.219 0.375-0.329 0.771-0.329 1.188 0 0.313 0.053 0.594 0.155 0.844 0.117 0.24 0.313 0.464 0.594 0.672 0.281 0.198 0.677 0.385 1.189 0.563 0.51 0.177 1.161 0.354 1.952 0.531 1.385 0.312 2.526 0.688 3.422 1.125s1.563 0.974 2 1.609c0.439 0.635 0.656 1.406 0.656 2.313 0 0.74-0.155 1.417-0.469 2.031-0.302 0.614-0.745 1.146-1.328 1.594-0.571 0.438-1.259 0.781-2.062 1.031-0.791 0.24-1.682 0.359-2.672 0.359-1.49 0-2.75-0.266-3.781-0.797s-1.813-1.219-2.345-2.063c-0.53-0.844-0.795-1.734-0.795-2.672h2.905c0.041 0.792 0.272 1.422 0.688 1.891 0.416 0.458 0.928 0.786 1.531 0.984 0.603 0.187 1.202 0.281 1.797 0.281 0.791 0 1.454-0.104 1.984-0.313 0.542-0.208 0.953-0.495 1.234-0.859s0.423-0.781 0.423-1.25zM282.231 2.393h7.531c1.707 0 3.15 0.26 4.327 0.781 1.189 0.521 2.089 1.292 2.704 2.313 0.624 1.010 0.937 2.255 0.937 3.734 0 1.042-0.215 1.995-0.64 2.859-0.418 0.854-1.022 1.583-1.813 2.188-0.782 0.594-1.719 1.036-2.814 1.328l-0.843 0.328h-7.079l-0.030-2.453h5.344c1.081 0 1.984-0.188 2.702-0.563 0.72-0.385 1.262-0.901 1.625-1.547 0.366-0.646 0.546-1.359 0.546-2.141 0-0.875-0.171-1.641-0.514-2.297-0.345-0.656-0.887-1.161-1.625-1.516-0.729-0.365-1.673-0.547-2.827-0.547h-4.517v20.281h-3.015v-22.75zM295.527 25.143l-5.531-10.313 3.141-0.016 5.609 10.141v0.187h-3.218zM308.526 25.455c-1.177 0-2.245-0.198-3.202-0.594-0.949-0.406-1.765-0.974-2.453-1.703-0.677-0.729-1.198-1.594-1.563-2.594-0.363-1-0.546-2.094-0.546-3.281v-0.656c0-1.375 0.203-2.599 0.61-3.672 0.405-1.083 0.958-2 1.655-2.75 0.699-0.75 1.49-1.318 2.375-1.703 0.887-0.385 1.803-0.578 2.75-0.578 1.209 0 2.251 0.208 3.127 0.625 0.885 0.417 1.609 1 2.171 1.75 0.562 0.74 0.978 1.615 1.25 2.625 0.27 1 0.405 2.094 0.405 3.281v1.297h-12.624v-2.359h9.735v-0.219c-0.041-0.75-0.199-1.479-0.469-2.188-0.261-0.708-0.679-1.292-1.25-1.75-0.574-0.458-1.355-0.688-2.345-0.688-0.656 0-1.259 0.141-1.813 0.422-0.551 0.271-1.024 0.677-1.422 1.219-0.395 0.542-0.702 1.203-0.921 1.984s-0.329 1.682-0.329 2.703v0.656c0 0.802 0.11 1.557 0.329 2.266 0.229 0.698 0.558 1.313 0.985 1.844 0.437 0.531 0.962 0.948 1.577 1.25 0.626 0.302 1.333 0.453 2.126 0.453 1.019 0 1.886-0.208 2.594-0.625 0.706-0.417 1.328-0.974 1.858-1.672l1.751 1.391c-0.366 0.552-0.83 1.078-1.392 1.578s-1.255 0.906-2.078 1.219c-0.811 0.313-1.776 0.469-2.891 0.469zM328.325 20.659c0-0.417-0.094-0.802-0.281-1.156-0.178-0.365-0.549-0.693-1.111-0.984-0.551-0.302-1.385-0.563-2.501-0.781-0.937-0.198-1.785-0.432-2.546-0.703-0.75-0.271-1.39-0.599-1.922-0.984-0.519-0.385-0.921-0.839-1.202-1.359s-0.423-1.13-0.423-1.828c0-0.667 0.146-1.297 0.439-1.891 0.302-0.594 0.725-1.12 1.266-1.578 0.551-0.458 1.211-0.818 1.984-1.078 0.77-0.26 1.63-0.391 2.578-0.391 1.353 0 2.51 0.24 3.467 0.719s1.694 1.12 2.203 1.922c0.51 0.792 0.766 1.672 0.766 2.641h-2.891c0-0.469-0.139-0.922-0.421-1.359-0.272-0.448-0.672-0.818-1.205-1.109-0.519-0.292-1.161-0.438-1.92-0.438-0.802 0-1.454 0.125-1.954 0.375-0.489 0.24-0.848 0.547-1.079 0.922-0.217 0.375-0.327 0.771-0.327 1.188 0 0.313 0.053 0.594 0.155 0.844 0.114 0.24 0.313 0.464 0.594 0.672 0.281 0.198 0.677 0.385 1.189 0.563 0.51 0.177 1.161 0.354 1.952 0.531 1.385 0.312 2.526 0.688 3.422 1.125s1.563 0.974 2 1.609c0.439 0.635 0.656 1.406 0.656 2.313 0 0.74-0.155 1.417-0.469 2.031-0.302 0.614-0.745 1.146-1.328 1.594-0.574 0.438-1.259 0.781-2.062 1.031-0.793 0.24-1.682 0.359-2.672 0.359-1.49 0-2.75-0.266-3.781-0.797-1.033-0.531-1.813-1.219-2.345-2.063-0.53-0.844-0.795-1.734-0.795-2.672h2.905c0.041 0.792 0.27 1.422 0.688 1.891 0.416 0.458 0.926 0.786 1.531 0.984 0.603 0.187 1.202 0.281 1.797 0.281 0.791 0 1.454-0.104 1.984-0.313 0.542-0.208 0.953-0.495 1.234-0.859s0.423-0.781 0.423-1.25zM342.027 25.455c-1.177 0-2.245-0.198-3.205-0.594-0.946-0.406-1.765-0.974-2.453-1.703-0.677-0.729-1.198-1.594-1.561-2.594-0.366-1-0.549-2.094-0.549-3.281v-0.656c0-1.375 0.203-2.599 0.61-3.672 0.407-1.083 0.958-2 1.655-2.75 0.699-0.75 1.49-1.318 2.377-1.703 0.885-0.385 1.801-0.578 2.75-0.578 1.207 0 2.249 0.208 3.125 0.625 0.885 0.417 1.609 1 2.171 1.75 0.562 0.74 0.978 1.615 1.25 2.625 0.27 1 0.407 2.094 0.407 3.281v1.297h-12.626v-2.359h9.735v-0.219c-0.041-0.75-0.199-1.479-0.469-2.188-0.261-0.708-0.677-1.292-1.25-1.75s-1.353-0.688-2.343-0.688c-0.656 0-1.262 0.141-1.813 0.422-0.553 0.271-1.026 0.677-1.422 1.219-0.398 0.542-0.704 1.203-0.923 1.984-0.217 0.781-0.327 1.682-0.327 2.703v0.656c0 0.802 0.11 1.557 0.327 2.266 0.231 0.698 0.558 1.313 0.985 1.844 0.437 0.531 0.965 0.948 1.577 1.25 0.626 0.302 1.335 0.453 2.126 0.453 1.022 0 1.886-0.208 2.594-0.625s1.328-0.974 1.858-1.672l1.751 1.391c-0.366 0.552-0.827 1.078-1.39 1.578-0.565 0.5-1.257 0.906-2.080 1.219-0.811 0.313-1.776 0.469-2.889 0.469zM354.871 10.893v14.25h-2.891v-16.906h2.814l0.078 2.656zM360.151 8.143l-0.014 2.688c-0.24-0.052-0.471-0.083-0.688-0.094-0.208-0.021-0.448-0.031-0.72-0.031-0.665 0-1.255 0.104-1.765 0.313s-0.944 0.5-1.298 0.875c-0.352 0.375-0.635 0.823-0.843 1.344-0.197 0.51-0.327 1.073-0.391 1.688l-0.811 0.469c0-1.021 0.098-1.979 0.297-2.875 0.208-0.896 0.526-1.688 0.953-2.375 0.427-0.698 0.969-1.24 1.625-1.625 0.665-0.396 1.458-0.594 2.375-0.594 0.208 0 0.448 0.026 0.718 0.078 0.272 0.042 0.459 0.089 0.562 0.141zM368.245 22.534l4.626-14.297h2.953l-6.078 16.906h-1.938l0.437-2.609zM364.386 8.237l4.766 14.375 0.327 2.531h-1.936l-6.126-16.906h2.969zM385.401 25.455c-1.177 0-2.245-0.198-3.202-0.594-0.949-0.406-1.767-0.974-2.453-1.703-0.679-0.729-1.198-1.594-1.563-2.594-0.363-1-0.546-2.094-0.546-3.281v-0.656c0-1.375 0.203-2.599 0.608-3.672 0.407-1.083 0.96-2 1.657-2.75s1.49-1.318 2.375-1.703c0.885-0.385 1.803-0.578 2.75-0.578 1.209 0 2.251 0.208 3.125 0.625 0.887 0.417 1.611 1 2.174 1.75 0.562 0.74 0.978 1.615 1.248 2.625 0.272 1 0.407 2.094 0.407 3.281v1.297h-12.624v-2.359h9.735v-0.219c-0.043-0.75-0.199-1.479-0.471-2.188-0.258-0.708-0.677-1.292-1.248-1.75-0.574-0.458-1.355-0.688-2.345-0.688-0.656 0-1.259 0.141-1.813 0.422-0.551 0.271-1.026 0.677-1.422 1.219s-0.702 1.203-0.921 1.984c-0.219 0.781-0.329 1.682-0.329 2.703v0.656c0 0.802 0.11 1.557 0.329 2.266 0.229 0.698 0.558 1.313 0.985 1.844 0.437 0.531 0.962 0.948 1.577 1.25 0.624 0.302 1.333 0.453 2.126 0.453 1.019 0 1.886-0.208 2.592-0.625 0.709-0.417 1.328-0.974 1.861-1.672l1.751 1.391c-0.366 0.552-0.83 1.078-1.392 1.578s-1.255 0.906-2.078 1.219c-0.814 0.313-1.776 0.469-2.891 0.469zM406.011 21.862v-20.719h2.905v24h-2.656l-0.249-3.281zM394.635 16.877v-0.328c0-1.292 0.158-2.464 0.469-3.516 0.325-1.063 0.777-1.974 1.36-2.734 0.594-0.76 1.298-1.344 2.11-1.75 0.823-0.417 1.739-0.625 2.75-0.625 1.063 0 1.991 0.187 2.782 0.562 0.802 0.365 1.479 0.901 2.032 1.609 0.562 0.698 1.003 1.542 1.328 2.531 0.322 0.99 0.546 2.109 0.672 3.359v1.438c-0.117 1.24-0.341 2.354-0.672 3.344-0.325 0.99-0.766 1.833-1.328 2.531-0.553 0.698-1.23 1.234-2.032 1.609-0.802 0.365-1.739 0.547-2.814 0.547-0.99 0-1.895-0.213-2.718-0.641-0.811-0.427-1.515-1.026-2.11-1.797-0.583-0.771-1.035-1.677-1.36-2.719-0.311-1.052-0.469-2.193-0.469-3.422zM397.543 16.549v0.328c0 0.844 0.082 1.635 0.249 2.375 0.178 0.74 0.448 1.391 0.814 1.953 0.363 0.563 0.827 1.005 1.39 1.328 0.562 0.313 1.234 0.469 2.016 0.469 0.958 0 1.744-0.203 2.359-0.609 0.626-0.406 1.125-0.943 1.499-1.609s0.667-1.391 0.875-2.172v-3.766c-0.126-0.573-0.306-1.125-0.546-1.656-0.229-0.542-0.533-1.021-0.907-1.438-0.363-0.427-0.816-0.766-1.358-1.016-0.533-0.25-1.161-0.375-1.89-0.375-0.793 0-1.474 0.167-2.048 0.5-0.562 0.323-1.026 0.771-1.39 1.344-0.366 0.563-0.635 1.219-0.814 1.969-0.167 0.74-0.249 1.531-0.249 2.375zM424.231 2.393v26.969h-2.329v-26.969h2.329z"></path>
</symbol>
<symbol id="film" viewBox="0 0 31 32">
<path stroke-linejoin="round" stroke-linecap="round" stroke-miterlimit="4" stroke-width="1.561" d="M25.783 2.992h-20.345c-1.566 0-2.836 1.27-2.836 2.836v20.345c0 1.566 1.27 2.836 2.836 2.836h20.345c1.566 0 2.836-1.27 2.836-2.836v-20.345c0-1.566-1.27-2.836-2.836-2.836z"></path>
<path stroke-linejoin="round" stroke-linecap="round" stroke-miterlimit="4" stroke-width="1.561" d="M9.105 2.992v26.016"></path>
<path stroke-linejoin="round" stroke-linecap="round" stroke-miterlimit="4" stroke-width="1.561" d="M22.114 2.992v26.016"></path>
<path stroke-linejoin="round" stroke-linecap="round" stroke-miterlimit="4" stroke-width="1.561" d="M2.601 16h26.016"></path>
<path stroke-linejoin="round" stroke-linecap="round" stroke-miterlimit="4" stroke-width="1.561" d="M2.602 9.496h6.504"></path>
<path stroke-linejoin="round" stroke-linecap="round" stroke-miterlimit="4" stroke-width="1.561" d="M2.602 22.504h6.504"></path>
<path stroke-linejoin="round" stroke-linecap="round" stroke-miterlimit="4" stroke-width="1.561" d="M22.114 22.504h6.504"></path>
<path stroke-linejoin="round" stroke-linecap="round" stroke-miterlimit="4" stroke-width="1.561" d="M22.114 9.496h6.504"></path>
</symbol>
<symbol id="heart" viewBox="0 0 34 32">
<path d="M17.231 31.705l-2.412-2.412c-8.96-7.926-14.818-13.268-14.818-19.815 0-5.342 4.135-9.477 9.477-9.477 2.929 0 5.858 1.378 7.754 3.618 1.895-2.24 4.825-3.618 7.754-3.618 5.342 0 9.477 4.135 9.477 9.477 0 6.548-5.858 11.889-14.818 19.815l-2.412 2.412z"></path>
</symbol>
<symbol id="search" viewBox="0 0 32 32">
<path stroke-linejoin="round" stroke-linecap="round" stroke-miterlimit="4" stroke-width="2.2857" d="M14.667 25.333c5.891 0 10.667-4.776 10.667-10.667s-4.776-10.667-10.667-10.667c-5.891 0-10.667 4.776-10.667 10.667s4.776 10.667 10.667 10.667z"></path>
<path stroke-linejoin="round" stroke-linecap="round" stroke-miterlimit="4" stroke-width="2.2857" d="M27.999 28l-5.8-5.8"></path>
</symbol>
</defs>
</svg>