<svg aria-hidden="true" style="position: absolute; width: 0; height: 0; overflow: hidden;" version="1.1"
    xmlns="http://www.w3.org/2000/svg" xmlns:xlink="http://www.w3.org/1999/xlink">
    <defs>
        <symbol id="close" viewBox="0 0 32 32">
            <path
                d="M26.667 7.303l-1.97-1.97-7.808 7.808-7.808-7.808-1.97 1.97 7.808 7.808-7.808 7.808 1.97 1.97 7.808-7.808 7.808 7.808 1.97-1.97-7.808-7.808 7.808-7.808z">
            </path>
        </symbol>
        <symbol id="film" viewBox="0 0 32 32">
            <path fill="none" stroke="#fff" style="stroke: var(--color1, #fff)" stroke-linejoin="round"
                stroke-linecap="round" stroke-miterlimit="4" stroke-width="2.1695"
                d="M26.427 2.667h-20.853c-1.605 0-2.907 1.301-2.907 2.907v20.853c0 1.605 1.301 2.907 2.907 2.907h20.853c1.605 0 2.907-1.301 2.907-2.907v-20.853c0-1.605-1.301-2.907-2.907-2.907z">
            </path>
            <path fill="none" stroke="#fff" style="stroke: var(--color1, #fff)" stroke-linejoin="round"
                stroke-linecap="round" stroke-miterlimit="4" stroke-width="2.1695" d="M9.333 2.667v26.667"></path>
            <path fill="none" stroke="#fff" style="stroke: var(--color1, #fff)" stroke-linejoin="round"
                stroke-linecap="round" stroke-miterlimit="4" stroke-width="2.1695" d="M22.667 2.667v26.667"></path>
            <path fill="none" stroke="#fff" style="stroke: var(--color1, #fff)" stroke-linejoin="round"
                stroke-linecap="round" stroke-miterlimit="4" stroke-width="2.1695" d="M2.667 16h26.667"></path>
            <path fill="none" stroke="#fff" style="stroke: var(--color1, #fff)" stroke-linejoin="round"
                stroke-linecap="round" stroke-miterlimit="4" stroke-width="2.1695" d="M2.667 9.333h6.667"></path>
            <path fill="none" stroke="#fff" style="stroke: var(--color1, #fff)" stroke-linejoin="round"
                stroke-linecap="round" stroke-miterlimit="4" stroke-width="2.1695" d="M2.667 22.667h6.667"></path>
            <path fill="none" stroke="#fff" style="stroke: var(--color1, #fff)" stroke-linejoin="round"
                stroke-linecap="round" stroke-miterlimit="4" stroke-width="2.1695" d="M22.667 22.667h6.667"></path>
            <path fill="none" stroke="#fff" style="stroke: var(--color1, #fff)" stroke-linejoin="round"
                stroke-linecap="round" stroke-miterlimit="4" stroke-width="2.1695" d="M22.667 9.333h6.667"></path>
        </symbol>
        <symbol id="heart" viewBox="0 0 34 32">
            <path
                d="M17.231 31.705l-2.412-2.412c-8.96-7.926-14.818-13.268-14.818-19.815 0-5.342 4.135-9.477 9.477-9.477 2.929 0 5.858 1.378 7.754 3.618 1.895-2.24 4.825-3.618 7.754-3.618 5.342 0 9.477 4.135 9.477 9.477 0 6.548-5.858 11.889-14.818 19.815l-2.412 2.412z">
            </path>
        </symbol>
        <symbol id="search" viewBox="0 0 16 16">
            <svg width="16" height="16" fill="none" xmlns="http://www.w3.org/2000/svg">
                <path
                    d="M7.33333 12.6667C10.2789 12.6667 12.6667 10.2789 12.6667 7.33333C12.6667 4.38781 10.2789 2 7.33333 2C4.38781 2 2 4.38781 2 7.33333C2 10.2789 4.38781 12.6667 7.33333 12.6667Z"
                    stroke="black" stroke-linecap="round" stroke-linejoin="round" />
                <path d="M14 14.0001L11.1 11.1001" stroke="black" stroke-linecap="round" stroke-linejoin="round" />
            </svg>
        </symbol>
        <symbol id="circle-left" viewBox="0 0 32 32">
            <svg version="1.1" xmlns="http://www.w3.org/2000/svg" width="32" height="32">
                <path
                    d="M16 32c8.837 0 16-7.163 16-16s-7.163-16-16-16-16 7.163-16 16 7.163 16 16 16zM16 3c7.18 0 13 5.82 13 13s-5.82 13-13 13-13-5.82-13-13 5.82-13 13-13z">
                </path>
                <path d="M20.914 9.914l-2.829-2.829-8.914 8.914 8.914 8.914 2.828-2.828-6.086-6.086z"></path>
            </svg>
        </symbol>
        <symbol id="circle-right" viewBox="0 0 32 32">
            <svg version="1.1" xmlns="http://www.w3.org/2000/svg" width="32" height="32">
                <path
                    d="M16 0c-8.837 0-16 7.163-16 16s7.163 16 16 16 16-7.163 16-16-7.163-16-16-16zM16 29c-7.18 0-13-5.82-13-13s5.82-13 13-13 13 5.82 13 13-5.82 13-13 13z">
                </path>
                <path d="M11.086 22.086l2.829 2.829 8.914-8.914-8.914-8.914-2.828 2.828 6.086 6.086z"></path>
            </svg>
        </symbol>
        <symbol id="sun" viewBox="0 0 32 32">
            <path
                d="M16 22.667c-3.68 0-6.667-2.987-6.667-6.667s2.987-6.667 6.667-6.667 6.667 2.987 6.667 6.667-2.987 6.667-6.667 6.667zM16 12c-2.2 0-4 1.8-4 4s1.8 4 4 4 4-1.8 4-4-1.8-4-4-4zM17.333 5.333v-4c0-0.733-0.6-1.333-1.333-1.333s-1.333 0.6-1.333 1.333v4c0 0.733 0.6 1.333 1.333 1.333s1.333-0.6 1.333-1.333zM17.333 30.667v-4c0-0.733-0.6-1.333-1.333-1.333s-1.333 0.6-1.333 1.333v4c0 0.733 0.6 1.333 1.333 1.333s1.333-0.6 1.333-1.333zM6.667 16c0-0.733-0.6-1.333-1.333-1.333h-4c-0.733 0-1.333 0.6-1.333 1.333s0.6 1.333 1.333 1.333h4c0.733 0 1.333-0.6 1.333-1.333zM32 16c0-0.733-0.6-1.333-1.333-1.333h-4c-0.733 0-1.333 0.6-1.333 1.333s0.6 1.333 1.333 1.333h4c0.733 0 1.333-0.6 1.333-1.333zM8.947 8.947c0.52-0.52 0.52-1.36 0-1.88l-2.667-2.667c-0.52-0.52-1.36-0.52-1.88 0s-0.52 1.36 0 1.88l2.667 2.667c0.267 0.267 0.6 0.387 0.947 0.387s0.68-0.133 0.947-0.387zM27.613 27.613c0.52-0.52 0.52-1.36 0-1.88l-2.667-2.667c-0.52-0.52-1.36-0.52-1.88 0s-0.52 1.36 0 1.88l2.667 2.667c0.267 0.267 0.6 0.387 0.947 0.387s0.68-0.133 0.947-0.387zM6.28 27.613l2.667-2.667c0.52-0.52 0.52-1.36 0-1.88s-1.36-0.52-1.88 0l-2.667 2.667c-0.52 0.52-0.52 1.36 0 1.88 0.267 0.267 0.6 0.387 0.947 0.387s0.68-0.133 0.947-0.387zM24.947 8.947l2.667-2.667c0.52-0.52 0.52-1.36 0-1.88s-1.36-0.52-1.88 0l-2.667 2.667c-0.52 0.52-0.52 1.36 0 1.88 0.267 0.267 0.6 0.387 0.947 0.387s0.68-0.133 0.947-0.387z">
            </path>
        </symbol>
        <symbol id="moon" viewBox="0 0 32 32">
            <path
                d="M20 32c-4.709-0.004-8.943-2.038-11.873-5.274l-0.012-0.014c-2.557-2.807-4.123-6.555-4.123-10.669 0-0.614 0.035-1.22 0.103-1.816l-0.007 0.073c0.845-7.176 6.285-12.867 13.262-14.083l0.097-0.014c0.799-0.13 1.72-0.204 2.658-0.204 1.437 0 2.833 0.174 4.169 0.502l-0.119-0.025c1.451 0.382 2.504 1.682 2.504 3.228 0 0.945-0.393 1.798-1.025 2.405l-0.001 0.001c-6.080 5.555-5.552 14.192 1.076 19.213 0.78 0.616 1.275 1.561 1.275 2.622 0 1.438-0.91 2.663-2.186 3.13l-0.023 0.007c-1.718 0.581-3.696 0.916-5.753 0.916-0.008 0-0.015 0-0.023 0h0.001z">
            </path>
        </symbol>
        <symbol id="circle-up" viewBox="0 0 32 32">
            <path
                d="M0 16c0 8.837 7.163 16 16 16s16-7.163 16-16-7.163-16-16-16-16 7.163-16 16zM29 16c0 7.18-5.82 13-13 13s-13-5.82-13-13 5.82-13 13-13 13 5.82 13 13z">
            </path>
            <path d="M22.086 20.914l2.829-2.829-8.914-8.914-8.914 8.914 2.828 2.828 6.086-6.086z"></path>
        </symbol>
        <symbol id="circle-down" viewBox="0 0 32 32">
            <path
                d="M32 16c0-8.837-7.163-16-16-16s-16 7.163-16 16 7.163 16 16 16 16-7.163 16-16zM3 16c0-7.18 5.82-13 13-13s13 5.82 13 13-5.82 13-13 13-13-5.82-13-13z">
            </path>
            <path d="M9.914 11.086l-2.829 2.829 8.914 8.914 8.914-8.914-2.828-2.828-6.086 6.086z"></path>
        </symbol>
        <symbol id="icon-chevrons-up" viewBox="0 0 24 24">
            <path
                d="M17.707 10.293l-5-5c-0.391-0.391-1.024-0.391-1.414 0l-5 5c-0.391 0.391-0.391 1.024 0 1.414s1.024 0.391 1.414 0l4.293-4.293 4.293 4.293c0.391 0.391 1.024 0.391 1.414 0s0.391-1.024 0-1.414zM17.707 17.293l-5-5c-0.391-0.391-1.024-0.391-1.414 0l-5 5c-0.391 0.391-0.391 1.024 0 1.414s1.024 0.391 1.414 0l4.293-4.293 4.293 4.293c0.391 0.391 1.024 0.391 1.414 0s0.391-1.024 0-1.414z">
            </path>
        </symbol>
        <symbol id="icon-chevrons-down" viewBox="0 0 24 24">
            <path
                d="M6.293 13.707l5 5c0.391 0.391 1.024 0.391 1.414 0l5-5c0.391-0.391 0.391-1.024 0-1.414s-1.024-0.391-1.414 0l-4.293 4.293-4.293-4.293c-0.391-0.391-1.024-0.391-1.414 0s-0.391 1.024 0 1.414zM6.293 6.707l5 5c0.391 0.391 1.024 0.391 1.414 0l5-5c0.391-0.391 0.391-1.024 0-1.414s-1.024-0.391-1.414 0l-4.293 4.293-4.293-4.293c-0.391-0.391-1.024-0.391-1.414 0s-0.391 1.024 0 1.414z">
            </path>
        </symbol>
    </defs>
</svg>